HIERARCHY
ROOT Hips
{
	OFFSET	0.00	0.00	0.00
	CHANNELS 6 Xposition Yposition Zposition Zrotation Xrotation Yrotation
	JOINT Spine
	{
		OFFSET	 0.00	0.01	 0.00
		CHANNELS 3 Zrotation Xrotation Yrotation
		JOINT Spine1
		{
			OFFSET	 0.00	 2.45913012437421	 0.00
			CHANNELS 3 Zrotation Xrotation Yrotation
            JOINT Neck
            {
                OFFSET	 0.00	 2.48462964506057	 0.00
                CHANNELS 3 Zrotation Xrotation Yrotation
                JOINT Head
                {
                    OFFSET	 0.00	 0.927524780924562	 0.00
                    CHANNELS 3 Zrotation Xrotation Yrotation
                    End Site 
                    {
                        OFFSET	 0.00	 1.14999962169752	 0.00
                    }
                }
            }
			JOINT LeftShoulder
			{
				OFFSET	 0.00	 2.48462964506057	 0.00
				CHANNELS 3 Zrotation Xrotation Yrotation
				JOINT LeftUpArm
				{
					OFFSET	 0.00	 1.24881979654096	 0.00
					CHANNELS 3 Zrotation Xrotation Yrotation
					JOINT LeftForeArm
					{
						OFFSET	 0.00	2.59758046908119	 0.00
						CHANNELS 3 Zrotation Xrotation Yrotation
						JOINT LeftHand
						{
							OFFSET	 0.00	2.45542024364365	 0.00
							CHANNELS 3 Zrotation Xrotation Yrotation
							JOINT LeftHandThumb 
							{
								OFFSET	 0.00	0.00	 0.00
								CHANNELS 3 Zrotation Xrotation Yrotation
								End Site
								{
									OFFSET	 0.00	0.00	1.00000003353624
								}
							}
							JOINT L_Wrist_End 
							{
								OFFSET	 0.00	0.99999967115358	 0.00
								CHANNELS 3 Zrotation Xrotation Yrotation
								End Site 
								{
									OFFSET	 0.00	 0.00	 0.00
								}
							}
						}
					}
				}
			}
			JOINT RightShoulder
			{
				OFFSET	 0.00	 2.48462964506057	 0.00
				CHANNELS 3 Zrotation Xrotation Yrotation
				JOINT RightUpArm
				{
					OFFSET	 0.00	 1.24881979654096	 0.00
					CHANNELS 3 Zrotation Xrotation Yrotation
					JOINT RightForeArm
					{
						OFFSET	 0.00	2.59758046908119	 0.00
						CHANNELS 3 Zrotation Xrotation Yrotation
						JOINT RightHand
						{
							OFFSET	 0.00	2.45542024364365	 0.00
							CHANNELS 3 Zrotation Xrotation Yrotation
							JOINT RightHandThumb 
							{
								OFFSET	 0.00	0.00	 0.00
								CHANNELS 3 Zrotation Xrotation Yrotation
								End Site
								{
									OFFSET	 0.00	0.00	1.00000003353624
								}
							}
							JOINT R_Wrist_End 
							{
								OFFSET	 0.00	0.99999967115358	 0.00
								CHANNELS 3 Zrotation Xrotation Yrotation
								End Site 
								{
									OFFSET	 0.00	 0.00	 0.00
								}
							}
						}
					}
				}
			}
		}
	}
	JOINT LeftUpLeg
	{
		OFFSET	 1.2719394002717	 0.00	 0.00
		CHANNELS 3 Zrotation Xrotation Yrotation
		JOINT LeftLowLeg
		{
			OFFSET	 0.00	-4.3429100912261	 0.00
			CHANNELS 3 Zrotation Xrotation Yrotation
			JOINT LeftFoot
			{
				OFFSET	 0.00	-4.48767017425826	 0.00
				CHANNELS 3 Zrotation Xrotation Yrotation
				JOINT LeftToeBase
                {
                    OFFSET	 0.00	0.00	 1.51507020887566
                    CHANNELS 3 Zrotation Xrotation Yrotation
                    End Site 
                    {
                        OFFSET	 0.00	0.00	 0.75000010571191
                    }
                }
			}
		}
	}
	JOINT RightUpLeg
	{
		OFFSET	 -1.2719393604653	 0.00	 0.00
		CHANNELS 3 Zrotation Xrotation Yrotation
		JOINT RightLowLeg
		{
			OFFSET	 0.00	-4.3429100912261	 0.00
			CHANNELS 3 Zrotation Xrotation Yrotation
			JOINT RightFoot
			{
				OFFSET	 0.00	-4.48767017425826	 0.00
				CHANNELS 3 Zrotation Xrotation Yrotation
				JOINT RightToeBase
                {
                    OFFSET	 0.00	0.00	 1.51507020887566
                    CHANNELS 3 Zrotation Xrotation Yrotation
                    End Site 
                    {
                        OFFSET	 0.00	0.00	 0.749999965609858
                    }
                }   
			}
		}
	}
}
MOTION 
Frames:	17 
Frame Time: 0.02 
 2.7545098876953125 5.840850219726563 9.827570190429688 -149.964 81.9456 151.514 3.1272 -9.59661 -1.88236 0.353878 6.46006 -2.34697 2.67107 40.3053 1.66762 6.95785 -46.8162 6.02604 -92.10533 -11.7365 -1.13856 -14.3034 2.65881 -30.1124 0.0 19.8457 0.0 32.434 -8.05056 28.1093 0.0 0.0 0.0 0.0 0.0 0.0 98.99568 -10.0088 -0.172712 9.70118 -0.383596 38.7831 0.0 19.671 0.0 -18.6667 -1.66193 -26.8539 0.0 0.0 0.0 0.0 0.0 0.0 4.02743 -6.45473 3.21969 0.0 7.78681 0.0 11.2835 5.57528 0.986312 0.0 -33.2483 0.0 6.17205 -4.29252 4.47062 0.0 6.65715 0.0 6.96311 10.2562 -8.15201 0.0 -27.5924 0.0 
  2.7537100219726565 5.840880126953125 9.827479858398437 -150.007 81.925 151.552 3.14347 -9.61151 -1.83825 0.30386 6.44977 -2.3068 2.72007 40.3424 1.6106 6.9875 -46.8102 6.03983 -92.09188 -11.714 -1.14451 -14.3597 2.74623 -30.3014 0.0 19.8773 0.0 32.3909 -8.02965 28.0315 0.0 0.0 0.0 0.0 0.0 0.0 99.02741 -10.0724 -0.181256 9.71818 -0.37437 38.8357 0.0 19.7221 0.0 -18.672 -1.74533 -26.8684 0.0 0.0 0.0 0.0 0.0 0.0 4.03829 -6.482 3.21438 0.0 7.802 0.0 11.2687 5.56409 0.992822 0.0 -33.2388 0.0 6.17955 -4.31169 4.45072 0.0 6.65202 0.0 6.95762 10.26107 -8.12323 0.0 -27.5853 0.0 
  2.7533700561523435 5.8406201171875 9.827420043945313 -149.931 81.9479 151.476 3.13512 -9.60528 -1.82706 0.293557 6.48361 -2.29357 2.69418 40.3539 1.64826 7.00668 -46.8046 6.02232 -92.10585 -11.7021 -1.1496 -14.3999 2.78799 -30.3869 0.0 19.8739 0.0 32.3374 -7.92134 28.0916 0.0 0.0 0.0 0.0 0.0 0.0 99.0538 -10.0742 -0.175473 9.70623 -0.3856 38.8197 0.0 19.7253 0.0 -18.6814 -1.677 -26.8832 0.0 0.0 0.0 0.0 0.0 0.0 4.03897 -6.46023 3.20775 0.0 7.81207 0.0 11.2661 5.5615396 0.997716 0.0 -33.2528 0.0 6.17852 -4.28463 4.48371 0.0 6.6501 0.0 6.97717 10.2556 -8.14 0.0 -27.5781 0.0 
  2.753210144042969 5.840349731445312 9.8272998046875 -149.869 81.9543 151.423 3.15085 -9.6213 -1.82357 0.249217 6.53321 -2.2949 2.71509 40.3277 1.63436 7.02307 -46.7726 6.05009 -92.13164 -11.6873 -1.13559 -14.3599 2.79084 -30.2942 0.0 19.8713 0.0 32.3074 -8.00104 28.0981 0.0 0.0 0.0 0.0 0.0 0.0 99.06791 -10.079 -0.154161 9.72415 -0.371682 38.7484 0.0 19.7309 0.0 -18.6606 -1.68919 -26.857 0.0 0.0 0.0 0.0 0.0 0.0 4.04319 -6.44793 3.17039 0.0 7.80615 0.0 11.2507 5.5589895 1.01585 0.0 -33.2183 0.0 6.18216 -4.26367 4.48696 0.0 6.63145 0.0 6.99824 10.25761 -8.14749 0.0 -27.593601 0.0 
  2.752869873046875 5.839949951171875 9.82739990234375 -149.872 81.9558 151.441 3.13974 -9.64568 -1.82698 0.236994 6.58322 -2.29582 2.67136 40.338 1.707 7.06086 -46.7822 6.04839 -92.15126 -11.6667 -1.09125 -14.3361 2.79271 -30.1353 0.0 19.8244 0.0 32.2937 -7.98377 28.1274 0.0 0.0 0.0 0.0 0.0 0.0 99.08445 -10.0638 -0.137359 9.71164 -0.384946 38.6318 0.0 19.7014 0.0 -18.5754 -1.66389 -26.8253 0.0 0.0 0.0 0.0 0.0 0.0 4.04292 -6.43628 3.16866 0.0 7.78195 0.0 11.2534 5.5729504 1.00016 0.0 -33.2216 0.0 6.18135 -4.24542 4.45062 0.0 6.60557 0.0 6.97884 10.26652 -8.13703 0.0 -27.5733 0.0 
  2.75239013671875 5.83989013671875 9.827230224609375 -149.931 81.9466 151.515 3.11703 -9.67469 -1.83401 0.240711 6.61248 -2.29707 2.6524 40.3277 1.73506 7.06697 -46.7576 6.03779 -92.15452 -11.6669 -1.05904 -14.3468 2.82714 -29.9877 0.0 19.7606 0.0 32.3659 -7.98588 28.04 0.0 0.0 0.0 0.0 0.0 0.0 99.06872 -10.0362 -0.15136 9.74408 -0.402037 38.6559 0.0 19.7129 0.0 -18.549 -1.71966 -26.8641 0.0 0.0 0.0 0.0 0.0 0.0 4.04332 -6.43922 3.18981 0.0 7.75725 0.0 11.2594 5.5749702 0.96405 0.0 -33.2155 0.0 6.18093 -4.23617 4.41011 0.0 6.56539 0.0 6.95324 10.275169 -8.12952 0.0 -27.5666 0.0 
  2.7520001220703123 5.840269775390625 9.827050170898438 -149.905 81.954 151.491 3.09488 -9.66864 -1.82658 0.252216 6.61255 -2.28358 2.64466 40.3403 1.7392 7.05496 -46.7446 6.01926 -92.1567 -11.6756 -1.0672 -14.4043 2.88753 -30.0301 0.0 19.7313 0.0 32.3517 -7.99314 28.1466 0.0 0.0 0.0 0.0 0.0 0.0 99.0488 -10.0495 -0.158352 9.7721 -0.382174 38.6671 0.0 19.7287 0.0 -18.6299 -1.79986 -26.8977 0.0 0.0 0.0 0.0 0.0 0.0 4.04756 -6.43188 3.21179 0.0 7.7536 0.0 11.26 5.57123 0.937781 0.0 -33.2617 0.0 6.18439 -4.24004 4.3963 0.0 6.58751 0.0 6.95465 10.26215 -8.12221 0.0 -27.564 0.0 
  2.751619873046875 5.840490112304687 9.827100219726562 -149.834 81.9683 151.436 3.0785 -9.65942 -1.82566 0.259056 6.62754 -2.27838 2.66005 40.3334 1.71714 7.01957 -46.7009 6.02749 -92.16156 -11.6784 -1.08405 -14.4474 2.94267 -30.0616 0.0 19.6988 0.0 32.3821 -7.96398 28.1055 0.0 0.0 0.0 0.0 0.0 0.0 99.06179 -10.0542 -0.1281 9.76591 -0.389886 38.6197 0.0 19.758 0.0 -18.654 -1.80987 -26.9064 0.0 0.0 0.0 0.0 0.0 0.0 4.04996 -6.43475 3.20447 0.0 7.78404 0.0 11.2734 5.5646095 0.937994 0.0 -33.252 0.0 6.18723 -4.23512 4.42095 0.0 6.60782 0.0 6.96556 10.25949 -8.14575 0.0 -27.5898 0.0 
  2.7514300537109375 5.840900268554687 9.827050170898438 -149.634 82.0084 151.26 3.07422 -9.62047 -1.83345 0.250713 6.63921 -2.28552 2.66972 40.3142 1.70106 7.00286 -46.6453 6.01718 -92.17431 -11.6574 -1.04399 -14.4406 2.94423 -30.0178 0.0 19.6778 0.0 32.3508 -7.98612 28.0404 0.0 0.0 0.0 0.0 0.0 0.0 99.06131 -10.0323 -0.111269 9.79095 -0.406107 38.5905 0.0 19.8591 0.0 -18.6186 -2.00683 -26.9588 0.0 0.0 0.0 0.0 0.0 0.0 4.05336 -6.41531 3.16633 0.0 7.82614 0.0 11.2793 5.55587 0.952995 0.0 -33.2496 0.0 6.19353 -4.20397 4.50798 0.0 6.64387 0.0 7.01725 10.2261505 -8.22192 0.0 -27.5695 0.0 
  2.7516900634765626 5.841489868164063 9.826810302734375 -149.518 82.0442 151.18 3.06505 -9.59558 -1.84383 0.240514 6.67908 -2.29415 2.63721 40.2774 1.74761 7.01982 -46.6259 6.00323 -92.19325 -11.639 -1.03435 -14.4341 2.94204 -29.9909 0.0 19.666 0.0 32.3254 -7.93253 28.1549 0.0 0.0 0.0 0.0 0.0 0.0 99.06102 -10.0479 -0.0958358 9.80761 -0.372842 38.5441 0.0 19.8897 0.0 -18.6075 -2.11014 -26.9267 0.0 0.0 0.0 0.0 0.0 0.0 4.04386 -6.41349 3.08683 0.0 7.87775 0.0 11.2664 5.5475397 0.989815 0.0 -33.2368 0.0 6.18796 -4.16729 4.59612 0.0 6.64806 0.0 7.07827 10.190189 -8.30799 0.0 -27.553001 0.0 
  2.7519601440429686 5.8422698974609375 9.826510009765625 -149.448 82.0642 151.134 3.06151 -9.58732 -1.85228 0.218689 6.72515 -2.30242 2.62344 40.2425 1.76742 7.03928 -46.6517 6.00612 -92.20353 -11.6353 -1.02048 -14.4283 2.93897 -29.9817 0.0 19.6861 0.0 32.3408 -7.96068 28.1132 0.0 0.0 0.0 0.0 0.0 0.0 99.081894 -10.0433 -0.0978656 9.8023 -0.347056 38.539 0.0 19.8362 0.0 -18.6004 -2.01454 -26.831 0.0 0.0 0.0 0.0 0.0 0.0 4.03584 -6.42229 3.00614 0.0 7.92047 0.0 11.2587 5.5401897 1.0427 0.0 -33.2142 0.0 6.18692 -4.15616 4.66024 0.0 6.66887 0.0 7.11335 10.155371 -8.37751 0.0 -27.5366 0.0 
  2.7520599365234375 5.8428802490234375 9.826409912109375 -149.45 82.0728 151.135 3.05314 -9.57892 -1.84607 0.216651 6.73811 -2.29404 2.61206 40.2462 1.77518 7.04926 -46.71 5.99736 -92.20912 -11.637 -1.00717 -14.4449 2.9751 -30.1107 0.0 19.6605 0.0 32.3324 -7.93427 28.1532 0.0 0.0 0.0 0.0 0.0 0.0 99.08848 -10.0293 -0.149014 9.80144 -0.353526 38.6255 0.0 19.8415 0.0 -18.5443 -1.99679 -26.8681 0.0 0.0 0.0 0.0 0.0 0.0 4.03042 -6.4197 2.98605 0.0 7.92321 0.0 11.2539 5.5467997 1.05828 0.0 -33.2355 0.0 6.1842 -4.16104 4.69114 0.0 6.68711 0.0 7.11487 10.139709 -8.40418 0.0 -27.535 0.0 
  2.752120056152344 5.84364013671875 9.826400146484374 -149.478 82.0828 151.142 3.03932 -9.57265 -1.83333 0.20742 6.76868 -2.27776 2.63693 40.2325 1.73969 7.04119 -46.747 6.02141 -92.23918 -11.6476 -1.0142 -14.4323 2.97528 -30.1437 0.0 19.6957 0.0 32.3562 -7.93672 28.058 0.0 0.0 0.0 0.0 0.0 0.0 99.13263 -10.0305 -0.162982 9.76003 -0.332418 38.5276 0.0 19.8049 0.0 -18.6174 -1.84315 -26.8079 0.0 0.0 0.0 0.0 0.0 0.0 4.02383 -6.40167 3.02153 0.0 7.90094 0.0 11.2561 5.55513 1.04425 0.0 -33.245102 0.0 6.17844 -4.17122 4.71692 0.0 6.70908 0.0 7.11687 10.133659 -8.40599 0.0 -27.5359 0.0 
  2.752070007324219 5.844340209960937 9.8264697265625 -149.416 82.0885 151.063 3.03263 -9.56546 -1.82412 0.208262 6.78209 -2.2667 2.6205 40.2296 1.74849 7.01957 -46.7269 5.98834 -92.24184 -11.6523 -1.00736 -14.4438 2.98425 -30.1461 0.0 19.6853 0.0 32.3969 -7.94207 28.0193 0.0 0.0 0.0 0.0 0.0 0.0 99.15471 -10.0087 -0.164822 9.756 -0.338281 38.4798 0.0 19.8347 0.0 -18.6509 -1.77157 -26.8006 0.0 0.0 0.0 0.0 0.0 0.0 4.03198 -6.38764 3.05365 0.0 7.89051 0.0 11.2543 5.5528603 1.02605 0.0 -33.239502 0.0 6.18466 -4.17886 4.79372 0.0 6.73115 0.0 7.15239 10.128651 -8.44316 0.0 -27.5284 0.0 
  2.752139892578125 5.845339965820313 9.826320190429687 -149.489 82.0789 151.127 3.06178 -9.52707 -1.78667 0.1203 6.69393 -2.23716 2.70942 40.2593 1.64014 7.02233 -46.6684 6.02076 -92.17937 -11.6045 -0.962361 -14.4625 2.95982 -30.0783 0.0 19.6907 0.0 32.3974 -7.93118 28.0685 0.0 0.0 0.0 0.0 0.0 0.0 99.20636 -10.0748 -0.195059 9.76257 -0.296665 38.456 0.0 19.8472 0.0 -18.6433 -1.75325 -26.7587 0.0 0.0 0.0 0.0 0.0 0.0 4.03141 -6.41706 3.09418 0.0 7.91258 0.0 11.2628 5.5421896 0.994837 0.0 -33.2418 0.0 6.17681 -4.19137 4.82056 0.0 6.72044 0.0 7.18806 10.12291 -8.43975 0.0 -27.5205 0.0 
  2.752659912109375 5.846610107421875 9.826489868164062 -149.613 82.0689 151.271 2.98933 -9.55228 -1.842 0.210147 6.72465 -2.27372 2.61653 40.2309 1.74408 6.96029 -46.599 5.95174 -92.21607 -11.6521 -0.973665 -14.4784 2.93434 -29.9668 0.0 19.6788 0.0 32.4414 -7.93435 28.02 0.0 0.0 0.0 0.0 0.0 0.0 99.16841 -10.0102 -0.196095 9.77097 -0.265671 38.4765 0.0 19.8496 0.0 -18.6334 -1.75446 -26.8114 0.0 0.0 0.0 0.0 0.0 0.0 4.0155 -6.46895 3.05493 0.0 7.95552 0.0 11.2665 5.5520096 1.00973 0.0 -33.2433 0.0 6.1498 -4.18383 4.77484 0.0 6.65856 0.0 7.22845 10.146481 -8.37697 0.0 -27.531399 0.0 
  2.7537100219726565 5.8485498046875 9.826610107421875 -149.749 82.0468 151.46 2.92389 -9.56232 -1.90538 0.272551 6.72823 -2.32061 2.49705 40.2114 1.91027 6.99234 -46.5849 5.90305 -92.22014 -11.7076 -1.02915 -14.5202 2.91694 -29.954 0.0 19.6602 0.0 32.4079 -7.96728 27.9978 0.0 0.0 0.0 0.0 0.0 0.0 99.14081 -9.96493 -0.213256 9.79191 -0.227736 38.4976 0.0 19.8668 0.0 -18.6483 -1.77316 -26.8363 0.0 0.0 0.0 0.0 0.0 0.0 3.99648 -6.55666 2.96217 0.0 8.02336 0.0 11.2853 5.56225 1.05207 0.0 -33.264 0.0 6.11456 -4.16826 4.63745 0.0 6.55387 0.0 7.25893 10.18375 -8.25348 0.0 -27.5296 0.0 
